<?xml version="1.0" encoding="UTF-8" standalone="no"?>
<!-- Created with Inkscape (http://www.inkscape.org/) -->

<svg
   width="512"
   height="512"
   viewBox="0 0 512 512"
   version="1.1"
   id="svg1"
   xml:space="preserve"
   inkscape:version="1.3 (0e150ed6c4, 2023-07-21)"
   sodipodi:docname="MAGIC LOGO.svg"
   xmlns:inkscape="http://www.inkscape.org/namespaces/inkscape"
   xmlns:sodipodi="http://sodipodi.sourceforge.net/DTD/sodipodi-0.dtd"
   xmlns="http://www.w3.org/2000/svg"
   xmlns:svg="http://www.w3.org/2000/svg"><sodipodi:namedview
     id="namedview1"
     pagecolor="#ffffff"
     bordercolor="#000000"
     borderopacity="0.25"
     inkscape:showpageshadow="2"
     inkscape:pageopacity="0.0"
     inkscape:pagecheckerboard="0"
     inkscape:deskcolor="#d1d1d1"
     inkscape:document-units="px"
     inkscape:zoom="1.1476675"
     inkscape:cx="176.00917"
     inkscape:cy="185.15817"
     inkscape:window-width="1920"
     inkscape:window-height="1009"
     inkscape:window-x="-8"
     inkscape:window-y="-8"
     inkscape:window-maximized="1"
     inkscape:current-layer="layer1" /><defs
     id="defs1" /><g
     inkscape:label="Layer 1"
     inkscape:groupmode="layer"
     id="layer1"><rect
       style="fill:#000000;stroke-width:5"
       id="rect1"
       width="512"
       height="512"
       x="0"
       y="0"
       sodipodi:insensitive="true" /><g
       id="g1"
       transform="matrix(0.7672135,0,0,0.7672135,-281.43305,-83.875579)"><path
         d="m 0,0 c 2.4,1.3 2.4,1.3 4.9,2.9 1,0.6 1.9,1.2 2.9,1.8 1,0.7 2,1.3 3.1,2 2.1,1.4 4.3,2.7 6.5,4.1 1.1,0.7 2.2,1.4 3.3,2.1 5.1,3.2 10.2,6.3 15.3,9.4 6.9,4.2 13.8,8.4 20.7,12.7 6.3,4 12.6,7.9 19,11.8 7.9,4.9 15.9,9.8 23.8,14.7 8.9,5.5 17.9,11 26.8,16.5 5.1,3.2 10.2,6.3 15.3,9.5 0.9,0.5 1.8,1.1 2.7,1.6 1.7,1.1 3.4,2.2 5.1,3.3 4.3,2.6 8.5,5.1 12.9,7.4 12.8,6.6 18.6,13.6 25.2,26.3 2.8,5.3 6,10.3 9.2,15.4 1.3,2.2 2.7,4.4 4,6.6 0.7,1.1 1.4,2.2 2.1,3.4 3.5,5.6 7,11.3 10.4,17 0.8,1.2 1.5,2.5 2.3,3.7 1.1,1.7 2.1,3.5 3.1,5.2 0.6,1 1.2,2 1.9,3 1.2,2.2 2.4,4.3 3.5,6.6 -0.7,0.2 -1.4,0.5 -2.1,0.7 -2.2,0.8 -4.3,1.5 -6.5,2.3 -2.6,0.9 -5.1,1.8 -7.7,2.7 -6.4,2.2 -12.8,4.5 -19.2,6.7 -3.6,1.3 -7.2,2.5 -10.8,3.8 -1.1,0.4 -1.1,0.4 -2.2,0.8 -9.1,3.2 -18.3,6.3 -27.5,9.3 -2.7,0.9 -5.5,1.8 -8.2,2.7 -1.7,0.5 -3.4,1.1 -5.1,1.6 -2.3,0.7 -4.6,1.5 -6.9,2.2 -0.6,0.2 -1.3,0.4 -2,0.6 -2.6,0.9 -4.4,1.8 -5.7,4.4 -1.8,5.9 -3.3,11.8 -4.6,17.9 -0.2,1 -0.4,2 -0.6,3.1 -0.8,3.3 -1.5,6.7 -2.2,10 -0.5,2.4 -1,4.7 -1.6,7.1 -1.3,6.1 -2.6,12.3 -4,18.4 -1.3,6.3 -2.7,12.5 -4.1,18.8 -2.7,12.3 -5.3,24.6 -8,36.9 -4.7,-1.5 -8.9,-3.4 -13.2,-5.7 -0.7,-0.4 -1.4,-0.7 -2.1,-1.1 -2.3,-1.2 -4.5,-2.4 -6.7,-3.6 -1.5,-0.8 -3.1,-1.6 -4.6,-2.4 -10.1,-5.4 -20,-10.8 -30,-16.2 -7.5,-4.2 -15.1,-8.2 -22.7,-12.3 -1,-0.5 -2,-1.1 -3.1,-1.7 -1,-0.5 -2,-1 -3,-1.6 -2.2,-1.2 -4.3,-2.5 -6.4,-3.8 -3.8,-1.9 -6,-1.9 -10.2,-1.6 -3.1,1.1 -3.1,1.1 -6,2.9 -1.2,0.6 -2.3,1.2 -3.5,1.8 -1.2,0.7 -2.4,1.4 -3.6,2.1 -1.2,0.6 -2.5,1.3 -3.7,2 -2.6,1.4 -5.1,2.8 -7.6,4.2 -4,2.2 -8,4.4 -12,6.6 -1.7,0.9 -3.5,1.9 -5.2,2.8 -5.2,2.8 -10.3,5.6 -15.5,8.4 -0.6,0.3 -1.2,0.6 -1.8,1 -2.5,1.3 -5,2.6 -7.4,3.9 -7.9,4.2 -15.7,8.5 -23.3,13.1 -2.4,1.2 -2.4,1.2 -5.4,1.2 -0.1,-0.6 -0.2,-1.1 -0.4,-1.7 -2.9,-13.6 -5.9,-27.1 -8.9,-40.7 -1.4,-6.5 -2.9,-13.1 -4.3,-19.7 -1.4,-6.3 -2.8,-12.6 -4.2,-18.9 -0.5,-2.5 -1,-4.9 -1.5,-7.3 -0.8,-3.4 -1.5,-6.7 -2.3,-10.1 -0.2,-1 -0.4,-2 -0.6,-3.1 -0.3,-1.3 -0.3,-1.3 -0.6,-2.8 -0.3,-1.2 -0.3,-1.2 -0.6,-2.4 -1.2,-5 -1.2,-5 -4.6,-8.5 -0.8,-0.3 -1.7,-0.6 -2.5,-0.8 -1,-0.4 -1.9,-0.7 -2.9,-1 -1.5,-0.5 -1.5,-0.5 -3.1,-1 -1.1,-0.4 -2.2,-0.8 -3.3,-1.2 -3.6,-1.2 -7.2,-2.4 -10.8,-3.5 -2.5,-0.9 -5,-1.7 -7.5,-2.6 -3.8,-1.2 -7.6,-2.5 -11.4,-3.8 -13,-4.4 -26,-9 -38.9,-13.6 -2.1,-0.7 -4.2,-1.5 -6.3,-2.2 -4.8,-1.7 -9.5,-3.4 -14.3,-5.1 5.2,-9.2 10.5,-18.3 16,-27.2 0.7,-1.3 1.5,-2.5 2.2,-3.7 5.8,-9.5 11.6,-18.9 17.4,-28.4 0.7,-1 1.3,-2 1.9,-3 0.6,-1 1.2,-1.9 1.8,-2.9 1.1,-1.8 2.2,-3.7 3.1,-5.5 3.7,-7 7.9,-10 14.8,-13.7 2,-1.1 4,-2.2 6,-3.3 1,-0.6 1.9,-1.1 3,-1.7 4,-2.3 8,-4.8 11.9,-7.3 8,-5.1 16,-10 24.1,-14.9 9.2,-5.6 18.5,-11.3 27.6,-17 C -76.6,42.9 -76.6,42.9 -65.8,36.5 -60,33 -54.2,29.4 -48.5,25.8 -39.3,20 -30,14.3 -20.7,8.7 -19.8,8.1 -18.9,7.6 -18,7 c 1.3,-0.7 1.3,-0.7 2.6,-1.5 1.6,-1 3.1,-2 4.7,-3 0.6,-0.5 1.3,-1 2,-1.5 0.6,-0.4 1.2,-0.8 1.8,-1.2 2.7,-1.1 4.2,-0.7 6.9,0.2 z"
         fill="#fefefe"
         transform="translate(704,341)"
         id="path4" /><path
         d="m 0,0 c 3.4,10.4 6.8,20.7 10.3,31.1 1.5,4.8 3.1,9.6 4.7,14.4 1.5,4.7 3.1,9.4 4.6,14 0.6,1.8 1.2,3.5 1.8,5.3 1.6,4.9 3.2,9.8 4.8,14.7 0.6,1.7 1.1,3.4 1.7,5.2 0.9,2.6 1.7,5.2 2.6,7.8 0.2,0.9 0.5,1.7 0.8,2.5 1.8,5.7 1.8,5.7 0.7,9 -25.7,-9.5 -51.4,-19.1 -77.1,-28.8 -2.3,-0.9 -4.6,-1.8 -6.9,-2.6 -3.7,-1.4 -7.4,-2.8 -11.1,-4.2 -1.3,-0.5 -2.7,-1 -4.1,-1.5 -3.1,-1.2 -6.2,-2.4 -9.3,-3.6 -2.4,-0.9 -4.8,-1.8 -7.3,-2.7 -1.2,-0.4 -2.3,-0.9 -3.6,-1.3 -1,-0.4 -2.1,-0.8 -3.2,-1.2 C -93,57 -93,57 -94,55 c 18.6,-11.2 18.6,-11.2 20.4,-12.2 1.2,-0.8 2.4,-1.5 3.6,-2.2 3.5,-2.1 7,-4.2 10.4,-6.2 10,-6 20,-12.1 30,-18.1 0.6,-0.4 1.2,-0.8 1.8,-1.1 1.7,-1.1 3.4,-2.1 5.1,-3.1 1.1,-0.7 2.2,-1.4 3.3,-2 2.4,-1.5 4.7,-2.9 7,-4.4 0.6,-0.4 1.2,-0.7 1.8,-1.1 C -8.9,3.5 -7.3,2.5 -5.7,1.5 -3,0 -3,0 0,0 Z"
         fill="#fafafa"
         transform="translate(799,208)"
         id="path7" /><path
         d="m 0,0 c 4.7,0.8 8.1,2.7 12.1,5.3 1.4,0.9 2.8,1.9 4.3,2.8 1.1,0.7 1.1,0.7 2.3,1.4 3.9,2.5 7.8,4.8 11.7,7.2 0.9,0.5 1.7,1 2.5,1.5 1.8,1 3.5,2.1 5.3,3.1 5.2,3.2 10.5,6.3 15.7,9.5 1.1,0.6 2.2,1.2 3.3,1.9 6.3,3.8 12.6,7.6 18.8,11.4 6,3.7 12,7.3 18,10.9 -2.6,3.1 -5.4,4.1 -9.1,5.5 -0.6,0.2 -1.2,0.4 -1.9,0.7 -2,0.7 -4.1,1.5 -6.1,2.2 -1.5,0.6 -2.9,1.1 -4.4,1.6 -3.1,1.2 -6.2,2.3 -9.3,3.4 -7.2,2.7 -14.4,5.3 -21.6,8 -2.4,0.9 -4.8,1.8 -7.2,2.6 -14.3,5.3 -28.7,10.8 -43,16.3 -8,3.1 -16.1,6.1 -24.4,8.7 1.3,-6.5 3.1,-12.7 5.2,-19 0.3,-0.9 0.6,-1.9 0.9,-2.9 1,-3.1 2.1,-6.2 3.1,-9.3 0.7,-2.2 1.4,-4.3 2.1,-6.5 l 4.5,-13.5 C -14,42.9 -10.7,33 -7.5,23 L -2.7,8.3 C -1.8,5.6 -0.9,2.8 0,0 Z"
         fill="#fafafa"
         transform="translate(602,208)"
         id="path8" /><path
         d="m 560,320 c -1.3,4.1 -2.8,7.9 -4.7,11.7 -0.5,1.1 -1,2.3 -1.6,3.4 -0.6,1.2 -1.2,2.4 -1.8,3.7 -0.6,1.2 -1.2,2.5 -1.8,3.8 -5.2,10.7 -10.5,21.3 -15.9,32 -4.8,9.6 -9.6,19.3 -14.2,29.1 -5.5,11.5 -11.3,22.9 -17,34.3 -0.7,0 -1.3,0 -2,0 -0.3,-0.6 -0.6,-1.3 -0.9,-1.9 -6.7,-14.6 -13.5,-29.1 -20.4,-43.6 -6,-12.6 -12,-25.2 -17.9,-37.9 -0.5,-1 -1,-2.1 -1.5,-3.2 -0.4,-1 -0.9,-1.9 -1.3,-2.9 -0.4,-0.8 -0.8,-1.7 -1.2,-2.5 -0.8,-2 -0.8,-2 -0.8,-4 2.4,-0.5 4.9,-1.1 7.3,-1.6 2.2,-0.5 4.4,-1 6.6,-1.5 6.1,-1.3 12.2,-2.7 18.3,-4 11,-2.5 22,-4.9 33,-7.4 2.5,-0.5 4.9,-1.1 7.3,-1.6 1.5,-0.4 3,-0.7 4.4,-1 21.9,-4.9 21.9,-4.9 26.1,-4.9 z"
         id="path9"
         style="fill:#ffffff" /><path
         d="m 841,320 c 11.1,1.5 22,3.9 32.9,6.3 1.9,0.4 3.8,0.9 5.7,1.3 5,1.1 10,2.2 14.9,3.3 4.1,0.9 8.1,1.8 12.2,2.7 8.4,1.8 16.8,3.7 25.2,5.6 0.7,0.1 1.5,0.3 2.3,0.5 3.3,0.7 6.5,1.5 9.8,2.3 -2.2,7.5 -5.4,14.3 -8.9,21.3 -1.7,3.5 -3.4,6.9 -5,10.3 -0.4,0.7 -0.7,1.4 -1.1,2.2 -8.2,16.7 -15.8,33.8 -23.6,50.7 -0.4,1 -0.8,1.9 -1.3,2.8 -0.3,0.9 -0.7,1.7 -1.1,2.5 -0.9,2.1 -2,4.1 -3,6.2 -0.7,0 -1.3,0 -2,0 -3.1,-6.1 -6.2,-12.3 -9.2,-18.4 -1.1,-2.1 -2.1,-4.1 -3.1,-6.2 -6.1,-12 -12,-24 -17.7,-36.1 -4.4,-9.1 -8.9,-18.1 -13.4,-27 C 841,323.2 841,323.2 841,320 Z"
         id="path10"
         style="fill:#ffffff" /></g></g></svg>
